<svg xmlns="http://www.w3.org/2000/svg" viewBox="0 0 649.35 443.04"><defs><style>.cls-1{fill:#fafafa;}.cls-2{fill:#e37b40;}.cls-3{fill:#ffe0b2;}.cls-4{fill:#fff;}.cls-5{fill:#8d032a;}.cls-6{fill:#ffa726;}.cls-7{fill:#fff176;}</style></defs><title>Connecting Dots</title><g id="Layer_2" data-name="Layer 2"><g id="Layer_2-2" data-name="Layer 2"><rect class="cls-1" width="648.95" height="443.04" rx="81.12" ry="81.12"/><path class="cls-2" d="M649,81.12V99.84H0V81.12A81.12,81.12,0,0,1,81.12,0H567.83A81.12,81.12,0,0,1,649,81.12Z"/><circle class="cls-3" cx="440.42" cy="51.29" r="36.37"/><circle cx="439.99" cy="50.44" r="20.82"/><circle class="cls-4" cx="442.96" cy="42.09" r="7.84"/><circle class="cls-3" cx="221.92" cy="51.29" r="36.37"/><circle cx="221.92" cy="50.08" r="20.82"/><circle class="cls-4" cx="224.5" cy="43.08" r="7.84"/><path class="cls-5" d="M76.21,0V210l-75-15-1-95C-1.9,45.3,19.29,8.73,76.21,0Z"/><path class="cls-5" d="M573.21,0V210l75-15,1-95C651.31,45.3,630.12,8.73,573.21,0Z"/><rect class="cls-6" x="86.63" y="193.83" width="93.36" height="93.36" rx="11.35" ry="11.35"/><rect class="cls-6" x="138.49" y="235.32" width="351.71" height="12.97"/><rect class="cls-7" x="141.49" y="369.32" width="351.71" height="12.97"/><rect class="cls-6" x="216.29" y="193.83" width="93.36" height="93.36" rx="11.35" ry="11.35"/><rect class="cls-6" x="343.37" y="193.83" width="93.36" height="93.36" rx="11.35" ry="11.35"/><rect class="cls-7" x="467.85" y="193.83" width="93.36" height="93.36" rx="11.35" ry="11.35"/><rect class="cls-7" x="86.63" y="326.09" width="93.36" height="93.36" rx="11.35" ry="11.35"/><rect class="cls-7" x="216.29" y="326.09" width="93.36" height="93.36" rx="11.35" ry="11.35"/><rect class="cls-7" x="343.37" y="326.09" width="93.36" height="93.36" rx="11.35" ry="11.35"/><rect class="cls-7" x="467.85" y="326.09" width="93.36" height="93.36" rx="11.35" ry="11.35"/></g></g></svg>