<svg xmlns="http://www.w3.org/2000/svg" viewBox="0 0 651 616.3"><defs><style>.cls-1{fill:#fff176;}.cls-2{fill:#ffb300;}.cls-3{fill:#fafafa;}.cls-4{fill:#ffe0b2;}.cls-5{fill:#fff;}.cls-6{fill:#fecb00;}</style></defs><title>Making Words</title><g id="Layer_2" data-name="Layer 2"><g id="Layer_3" data-name="Layer 3"><polygon class="cls-1" points="622.1 233.37 465.68 233.37 621.9 2.01 622.1 233.37"/><polygon class="cls-2" points="621.9 319.38 535.02 233.37 621.9 103.12 621.9 319.38"/><polygon class="cls-1" points="187.27 233.37 29.18 0 29.18 233.37 187.27 233.37"/><polygon class="cls-2" points="29.18 319.38 117.39 233.37 29.18 103.12 29.18 319.38"/><path class="cls-3" d="M81.38,171.87H569.63A81.37,81.37,0,0,1,651,253.24V534.93a81.37,81.37,0,0,1-81.37,81.37H81.37A81.37,81.37,0,0,1,0,534.93V253.24a81.38,81.38,0,0,1,81.38-81.37Z"/><path class="cls-1" d="M651,253.24V272H0V253.24a81.37,81.37,0,0,1,81.37-81.37H569.62A81.37,81.37,0,0,1,651,253.24Z"/><circle class="cls-4" cx="441.81" cy="223.32" r="36.48"/><circle cx="441.38" cy="222.47" r="20.88"/><circle class="cls-5" cx="444.36" cy="214.09" r="7.87"/><circle class="cls-4" cx="222.62" cy="223.32" r="36.48"/><circle cx="222.62" cy="222.1" r="20.88"/><circle class="cls-5" cx="225.21" cy="215.09" r="7.87"/><rect class="cls-1" x="182.09" y="444.57" width="13.66" height="113.76" transform="translate(-194.17 126.77) rotate(-24.99)"/><rect class="cls-1" x="328.75" y="397.26" width="13.66" height="113.76" transform="translate(-160.45 184.3) rotate(-24.99)"/><rect class="cls-1" x="232.62" y="531.15" width="113.76" height="13.66" transform="translate(-200.18 172.68) rotate(-24.99)"/><circle class="cls-6" cx="161.92" cy="433.5" r="43.14"/><circle class="cls-6" cx="221.61" cy="567.82" r="43.14"/><rect class="cls-1" x="466.86" y="332.17" width="13.66" height="113.76" transform="translate(-120.41 238.09) rotate(-25.14)"/><rect class="cls-1" x="316.13" y="345.95" width="113.76" height="13.66" transform="translate(-114.54 191.88) rotate(-25.14)"/><circle class="cls-6" cx="500.86" cy="456.93" r="43.14"/><circle class="cls-6" cx="440.83" cy="322.77" r="43.14"/><circle class="cls-6" cx="360.38" cy="510.01" r="43.14"/><circle class="cls-6" cx="305.88" cy="390.36" r="43.14"/></g></g></svg>