<svg xmlns="http://www.w3.org/2000/svg" viewBox="0 0 650 525.77"><defs><style>.cls-1{fill:#734052;}.cls-2{fill:#db8952;}.cls-3{fill:#fafafa;}.cls-4{fill:#ffe0b2;}.cls-5{fill:#fff;}.cls-6{fill:none;stroke:#734052;stroke-linecap:round;stroke-miterlimit:10;stroke-width:13.85px;}</style></defs><title>Tap Next</title><g id="Layer_2" data-name="Layer 2"><g id="Layer_2-2" data-name="Layer 2"><circle class="cls-1" cx="536.67" cy="67.81" r="67.81"/><circle class="cls-2" cx="531.46" cy="85.02" r="42.61"/><circle class="cls-1" cx="112.71" cy="67.81" r="67.81"/><circle class="cls-2" cx="117.92" cy="85.02" r="42.61"/><rect class="cls-3" y="82.02" width="650" height="443.75" rx="81.25" ry="81.25"/><path class="cls-1" d="M650,163.27V182H0V163.27A81.25,81.25,0,0,1,81.25,82h487.5A81.25,81.25,0,0,1,650,163.27Z"/><circle class="cls-4" cx="441.13" cy="133.39" r="36.42"/><circle cx="440.7" cy="132.55" r="20.85"/><circle class="cls-5" cx="443.67" cy="124.18" r="7.85"/><circle class="cls-4" cx="222.27" cy="133.39" r="36.42"/><circle cx="222.27" cy="132.18" r="20.85"/><circle class="cls-5" cx="224.86" cy="125.17" r="7.85"/><path class="cls-1" d="M334.29,481.84A34.8,34.8,0,0,0,326.9,461h0a34.77,34.77,0,0,0,34.29-35.85,38.21,38.21,0,0,0-8.84-23.58c14-5.85,22-18.73,21.67-32.8a34.81,34.81,0,0,0-7.39-20.85l69.91-1.55A35.08,35.08,0,0,0,435,276.22L310.15,279c24.53-28.71,43.69-59.84,23.4-79.24-28.77-27.52-82.14,32.76-164,79.37-56.74,33.58-77,79-76,123.81a119.18,119.18,0,0,0,122,116.63l84.21-1.87A34.83,34.83,0,0,0,334.29,481.84Zm-65.53,22.47-53.3,1.18c-54.68,1.22-106.28-45.42-107.55-102.87-1.19-53.3,27.66-84.88,67.71-110.93,91.34-55.36,132.69-95.52,148.46-82,15.8,15.11-17.05,53.7-47.31,83.92l158.52-3.52c11.31-.25,21.22,9.45,21.46,20.53.25,11.3-9.45,21.22-20.53,21.46l-147.44,3.28.32,14.08,49.14-1.1c11.31-.25,21.22,9.46,21.47,20.53.25,11.31-9.46,21.22-20.53,21.47l-34.84.77.31,14.08,21-.47c11.3-.25,21.21,9.46,21.46,20.53.25,11.31-9.46,21.22-20.53,21.46l-35.07.78.31,14.08,6.92-.15c11.31-.26,21.22,9.45,21.47,20.53.25,11.3-9.46,21.21-20.53,21.46l-30.92.92Z"/><polyline class="cls-6" points="449.85 249.11 516.66 305.34 452.45 366.33"/><polyline class="cls-6" points="500.1 256.08 557.73 304.43 502.34 357.14"/></g></g></svg>