<?xml version="1.0" encoding="utf-8"?>
<!-- Generator: Adobe Illustrator 22.0.1, SVG Export Plug-In . SVG Version: 6.00 Build 0)  -->
<svg version="1.1" id="Capa_1" xmlns="http://www.w3.org/2000/svg" xmlns:xlink="http://www.w3.org/1999/xlink" x="0px" y="0px"
	 viewBox="0 0 300 300" enable-background="new 0 0 300 300" xml:space="preserve">
<circle fill="#FFFFFF" stroke="#443254" stroke-width="10" stroke-miterlimit="10" cx="150" cy="150.4" r="128"/>
<g>
	<path fill="#443254" d="M205.8,144.9c-3.6,0-6.7,1.2-9.1,3l0,0c0-8.5-6.7-15.2-15.2-15.2c-3.6,0-7.3,1.2-10.3,3.6
		c-2.4-6.1-7.9-9.7-14-9.7c-3.6,0-6.7,1.2-9.1,3V99.3c0-8.5-6.7-15.2-15.2-15.2s-15.2,6.7-15.2,15.2v54.1
		c-12.2-10.9-25.5-19.5-34.1-10.9c-12.2,12.2,13.4,35.9,32.8,71.8c14,24.9,33.5,34.1,52.9,34.1c28.6,0,51.7-23.1,51.7-51.7v-36.5
		C221,151.6,214.3,144.9,205.8,144.9z M214.9,173.5v23.1c0,23.7-20.7,45.6-45.6,45.6c-23.1,0-36.5-12.8-47.4-30.4
		c-23.1-40.1-40.1-58.4-34.1-65.1c6.7-6.7,23.1,7.9,35.9,21.3V99.3c0-4.9,4.3-9.1,9.1-9.1c4.9,0,9.1,4.3,9.1,9.1v63.9h6.1v-21.3
		c0-4.9,4.3-9.1,9.1-9.1c4.9,0,9.1,4.3,9.1,9.1V157h6.1v-9.1c0-4.9,4.3-9.1,9.1-9.1c4.9,0,9.1,4.3,9.1,9.1v15.2h6.1v-3
		c0-4.9,4.3-9.1,9.1-9.1c4.9,0,9.1,4.3,9.1,9.1L214.9,173.5L214.9,173.5z"/>
	<g>
		<g>
			<path fill="#FF525F" d="M205.8,151c-4.9,0-9.1,4.3-9.1,9.1v3h-6.1v-15.2c0-4.9-4.3-9.1-9.1-9.1c-4.9,0-9.1,4.3-9.1,9.1v9.1h-6.1
				v-15.2c0-4.9-4.3-9.1-9.1-9.1c-4.9,0-9.1,4.3-9.1,9.1v21.3h-6.1V99.3c0-4.9-4.3-9.1-9.1-9.1s-9.1,4.3-9.1,9.1V168
				c-12.8-13.4-29.2-28-35.9-21.3c-6.1,6.7,10.9,24.9,34.1,65.1c10.9,17.6,24.3,30.4,47.4,30.4c24.9,0,45.6-21.9,45.6-45.6v-23.1h0
				v-13.4C214.9,155.2,210.7,151,205.8,151z"/>
		</g>
	</g>
</g>
<g>
	<polyline fill="none" stroke="#443254" stroke-width="6" stroke-linecap="round" stroke-miterlimit="10" points="106.1,92.6 
		131.1,64.2 156.9,92.6 	"/>
	<polyline fill="none" stroke="#443254" stroke-width="6" stroke-linecap="round" stroke-miterlimit="10" points="109.6,70.9 
		131.1,46.4 153.4,70.9 	"/>
</g>
<g>
	<polygon fill="#EF0ABE" points="199.4,102.7 201.8,107.6 207.2,108.4 203.3,112.2 204.2,117.5 199.4,115 194.6,117.5 195.5,112.2 
		191.6,108.4 197,107.6 	"/>
	<polygon fill="#0CED1C" points="207.8,59.7 204.8,57.1 200.9,58.1 202.4,54.3 200.3,50.9 204.3,51.3 206.9,48.2 207.8,52.1 
		211.5,53.6 208,55.7 	"/>
	<polygon fill="#EA320F" points="272,147.5 268.3,149.3 267.7,153.5 264.7,150.5 260.6,151.2 262.6,147.5 260.6,143.8 264.7,144.5 
		267.7,141.5 268.3,145.6 	"/>
	<polygon fill="#EA320F" points="63.3,139.2 59.6,141 59,145.2 56.1,142.2 51.9,142.9 53.9,139.2 51.9,135.5 56.1,136.2 59,133.2 
		59.6,137.3 	"/>
	<polygon fill="#1010E8" points="90.9,217.4 87.8,217.4 86,219.9 85.1,217 82.1,216.1 84.6,214.2 84.5,211.1 87.1,213 90,211.9 
		89,214.9 	"/>
	<circle fill="#E5134F" cx="85.8" cy="105.4" r="5.1"/>
	<circle fill="#FEBD11" cx="241" cy="223.4" r="3.3"/>
	<circle fill="#443254" cx="159.8" cy="256.4" r="4.1"/>
	<circle fill="#443254" cx="99.7" cy="54" r="4.1"/>
</g>
</svg>
